<svg width="76" height="76" viewBox="0 0 76 76" fill="none" xmlns="http://www.w3.org/2000/svg">
<path d="M75.3689 0H22.6056V19.4093C17.603 20.4319 12.9708 22.7903 9.20109 26.2343C5.43137 29.6782 2.66492 34.0789 1.1956 38.9689C-0.273716 43.859 -0.391013 49.0557 0.856171 54.007C2.10335 58.9584 4.66844 63.4794 8.27893 67.0899C11.8894 70.7004 16.4105 73.2655 21.3618 74.5127C26.3132 75.7599 31.5099 75.6426 36.3999 74.1733C41.29 72.7039 45.6907 69.9375 49.1346 66.1678C52.5785 62.398 54.937 57.7659 55.9595 52.7633H75.3689V0ZM56.4645 45.2257C56.0079 38.395 53.0882 31.9622 48.2474 27.1214C43.4067 22.2807 36.9738 19.3609 30.1432 18.9043V7.53761H67.8312V45.2257H56.4645ZM28.2588 26.3816C33.7563 26.3816 39.0287 28.5655 42.916 32.4529C46.8033 36.3402 48.9872 41.6125 48.9872 47.1101C48.9872 52.6076 46.8033 57.8799 42.916 61.7673C39.0287 65.6546 33.7563 67.8385 28.2588 67.8385C22.7613 67.8385 17.4889 65.6546 13.6016 61.7673C9.71424 57.8799 7.53036 52.6076 7.53036 47.1101C7.53036 41.6125 9.71424 36.3402 13.6016 32.4529C17.4889 28.5655 22.7613 26.3816 28.2588 26.3816Z" fill="white"/>
</svg>
