<svg width="116" height="116" viewBox="0 0 116 116" fill="none" xmlns="http://www.w3.org/2000/svg">
<g clip-path="url(#clip0_1899_1133)">
<path d="M71.2915 88.7148C72.7415 83.9232 75.6415 79.6107 79.5082 76.2564C86.7582 70.2667 91.3499 61.1626 91.3499 51.1001C91.3499 32.4126 75.6417 17.0792 56.3082 18.0376C39.1497 18.7564 25.133 33.1314 24.6497 50.1417C24.408 60.6835 28.9997 70.0273 36.4915 76.2564C40.5997 79.6105 43.4997 83.923 44.9497 88.7148H71.2915Z" fill="#EAB725"/>
<path d="M54.858 89.1939H57.033L47.3663 53.4961C47.608 53.4961 47.8496 53.4961 48.0913 53.4961C49.2996 53.4961 50.508 53.017 51.4746 52.0586C51.9578 51.5795 52.4413 51.3398 53.1663 51.3398C53.8913 51.3398 54.3746 51.5795 54.858 52.0586C56.5498 53.9752 59.4498 53.9752 61.1413 52.0586C61.6246 51.5795 62.108 51.3398 62.833 51.3398C63.3163 51.3398 64.0413 51.5795 64.5248 52.0586C65.4915 53.017 66.458 53.4961 67.908 53.4961C68.1498 53.4961 68.3913 53.4961 68.633 53.4961L59.208 89.1939H61.383L71.2913 51.8189C71.2913 51.3398 71.2913 50.8605 70.808 50.6211C70.3248 50.3814 69.8413 50.6211 69.5998 50.8607C69.1165 51.3398 68.633 51.5795 68.1498 51.5795C67.4248 51.5795 66.9415 51.3398 66.2165 50.8607C65.2498 49.9023 64.2833 49.4232 63.0748 49.4232C61.8663 49.4232 60.8998 49.9023 59.933 50.8607C58.9663 51.8191 57.5163 51.8191 56.5498 50.8607C55.8248 49.9023 54.6165 49.4232 53.408 49.4232C52.1998 49.4232 50.9913 49.9023 50.2663 50.8607C49.783 51.3398 49.058 51.5795 48.333 51.5795C47.8498 51.5795 47.1248 51.3398 46.883 50.8607C46.6413 50.6211 46.158 50.3816 45.6748 50.6211C45.1915 50.8607 44.9498 51.3398 45.1915 51.8189L54.858 89.1939Z" fill="white"/>
<path d="M50.5088 110.756C51.7173 113.631 54.6173 115.788 58.0005 115.788C61.3838 115.788 64.2838 113.631 65.4923 110.756H50.5088Z" fill="#C4C4C4"/>
<path d="M66.9419 110.996H49.3002C46.8835 110.996 44.9502 109.079 44.9502 106.684V88.4751H71.2919V106.684C71.2919 109.079 69.3585 110.996 66.9419 110.996Z" fill="#C4C4C4"/>
<path d="M71.0502 97.5792H44.9502C43.5002 97.5792 42.292 96.3813 42.292 94.9438C42.292 93.5063 43.5002 92.3085 44.9502 92.3085H71.0502C72.5002 92.3085 73.7085 93.5063 73.7085 94.9438C73.7085 96.3813 72.5002 97.5792 71.0502 97.5792Z" fill="#8C8C8C"/>
<path d="M71.0502 105.965H44.9502C43.5002 105.965 42.292 104.767 42.292 103.329C42.292 101.892 43.5002 100.694 44.9502 100.694H71.0502C72.5002 100.694 73.7085 101.892 73.7085 103.329C73.7085 104.767 72.5002 105.965 71.0502 105.965Z" fill="#8C8C8C"/>
<path d="M57.9998 0.787598C56.7915 0.787598 55.583 1.74601 55.583 3.18351V11.3294C55.583 12.5273 56.5498 13.7253 57.9998 13.7253C59.4498 13.7253 60.4165 12.7669 60.4165 11.3294V3.18351C60.4165 1.74601 59.208 0.787598 57.9998 0.787598Z" fill="#EAB725"/>
<path d="M25.616 15.4023C24.6493 14.4439 23.1993 14.4439 22.2328 15.4023C21.2663 16.3607 21.266 17.7982 22.2328 18.7564L28.0328 24.5064C28.9995 25.4648 30.4495 25.4648 31.416 24.5064C32.3826 23.548 32.3828 22.1105 31.416 21.1523L25.616 15.4023Z" fill="#EAB725"/>
<path d="M18.1247 48.4647H9.90795C8.6997 48.4647 7.49121 49.4231 7.49121 50.8606C7.49121 52.0585 8.45795 53.2565 9.90795 53.2565H18.1247C19.333 53.2565 20.5414 52.2981 20.5414 50.8606C20.5414 49.6626 19.333 48.4647 18.1247 48.4647Z" fill="#EAB725"/>
<path d="M28.0329 77.2148L22.2329 82.9648C21.2661 83.9232 21.2661 85.3607 22.2329 86.3189C23.1996 87.2771 24.6496 87.2773 25.6161 86.3189L31.4161 80.5689C32.3829 79.6105 32.3829 78.173 31.4161 77.2148C30.4494 76.2566 28.9996 76.2564 28.0329 77.2148Z" fill="#EAB725"/>
<path d="M87.966 77.2148C86.9992 76.2564 85.5492 76.2564 84.5825 77.2148C83.6157 78.1732 83.6157 79.6107 84.5825 80.5689L90.3825 86.3189C91.3492 87.2773 92.7992 87.2773 93.7657 86.3189C94.7322 85.3605 94.7325 83.923 93.7657 82.9648L87.966 77.2148Z" fill="#EAB725"/>
<path d="M106.091 48.4647H97.8747C96.6665 48.4647 95.458 49.4231 95.458 50.8606C95.458 52.0585 96.4247 53.2565 97.8747 53.2565H106.091C107.3 53.2565 108.508 52.2981 108.508 50.8606C108.508 49.6626 107.541 48.4647 106.091 48.4647Z" fill="#EAB725"/>
<path d="M90.3825 15.4023L84.5825 21.1523C83.6157 22.1107 83.6157 23.5482 84.5825 24.5064C85.5492 25.4648 86.9992 25.4648 87.9657 24.5064L93.7657 18.7564C94.7325 17.798 94.7325 16.3605 93.7657 15.4023C92.799 14.4441 91.3492 14.4439 90.3825 15.4023Z" fill="#EAB725"/>
</g>
<defs>
<clipPath id="clip0_1899_1133">
<rect width="116" height="115" fill="white" transform="translate(0 0.787598)"/>
</clipPath>
</defs>
</svg>
