<svg width="82" height="82" viewBox="0 0 82 82" fill="none" xmlns="http://www.w3.org/2000/svg">
<g filter="url(#filter0_d_227_3263)">
<circle cx="41" cy="37" r="37" fill="#FDFFFF"/>
<path fill-rule="evenodd" clip-rule="evenodd" d="M13.2871 61.9871C18.5264 55.4956 28.7789 49.9683 40.5755 49.9683C52.3721 49.9683 62.6246 55.4956 67.864 61.9871C61.0996 69.3704 51.3782 74 40.5755 74C29.7729 74 20.0514 69.3704 13.2871 61.9871ZM51.5357 16.7566C48.6289 13.5872 44.6864 11.8066 40.5755 11.8066C36.4647 11.8066 32.5222 13.5872 29.6154 16.7566C26.7086 19.926 25.0755 24.2246 25.0755 28.7068C25.0755 33.189 26.7086 37.4877 29.6154 40.6571C32.5222 43.8265 36.4647 45.607 40.5755 45.607C44.6864 45.607 48.6289 43.8265 51.5357 40.6571C54.4425 37.4877 56.0755 33.189 56.0755 28.7068C56.0755 24.2246 54.4425 19.926 51.5357 16.7566Z" fill="#D8D8D6"/>
</g>
<defs>
<filter id="filter0_d_227_3263" x="0" y="0" width="82" height="82" filterUnits="userSpaceOnUse" color-interpolation-filters="sRGB">
<feFlood flood-opacity="0" result="BackgroundImageFix"/>
<feColorMatrix in="SourceAlpha" type="matrix" values="0 0 0 0 0 0 0 0 0 0 0 0 0 0 0 0 0 0 127 0" result="hardAlpha"/>
<feOffset dy="4"/>
<feGaussianBlur stdDeviation="2"/>
<feComposite in2="hardAlpha" operator="out"/>
<feColorMatrix type="matrix" values="0 0 0 0 0 0 0 0 0 0 0 0 0 0 0 0 0 0 0.25 0"/>
<feBlend mode="normal" in2="BackgroundImageFix" result="effect1_dropShadow_227_3263"/>
<feBlend mode="normal" in="SourceGraphic" in2="effect1_dropShadow_227_3263" result="shape"/>
</filter>
</defs>
</svg>
